HIERARCHY
ROOT Root
{
  OFFSET 0.0 0.0 0.0
  CHANNELS 6 Xposition Yposition Zposition Zrotation Yrotation Xrotation
  JOINT Hips
  {
    OFFSET 0.0 100.0 0.0
    CHANNELS 6 Xposition Yposition Zposition Zrotation Yrotation Xrotation
    JOINT Spine1
    {
      OFFSET -0.013727 5.003763 -0.053727
      CHANNELS 3 Zrotation Yrotation Xrotation
      JOINT Spine2
      {
        OFFSET -0.0 7.125301 -0.029825
        CHANNELS 3 Zrotation Yrotation Xrotation
        JOINT Chest
        {
          OFFSET -1e-06 7.550063 -0.815971
          CHANNELS 3 Zrotation Yrotation Xrotation
          JOINT Neck1
          {
            OFFSET -0.181677 26.311295 -0.553348
            CHANNELS 3 Zrotation Yrotation Xrotation
            JOINT Neck2
            {
              OFFSET -3e-06 7.709397 2.302585
              CHANNELS 3 Zrotation Yrotation Xrotation
              JOINT Head
              {
                OFFSET -5e-06 6.128916 1.953709
                CHANNELS 3 Zrotation Yrotation Xrotation
                JOINT HeadEnd
                {
                  OFFSET 0.003598 16.065403 -1.835379
                  CHANNELS 3 Zrotation Yrotation Xrotation
                }
                JOINT Jaw
                {
                  OFFSET 0.002637 0.475592 3.094941
                  CHANNELS 3 Zrotation Yrotation Xrotation
                }
                JOINT LeftEye
                {
                  OFFSET 3.206381 5.380205 7.586883
                  CHANNELS 3 Zrotation Yrotation Xrotation
                }
                JOINT RightEye
                {
                  OFFSET -3.22244 5.361869 7.558234
                  CHANNELS 3 Zrotation Yrotation Xrotation
                }
              }
            }
          }
          JOINT LeftShoulder
          {
            OFFSET 1.621652 23.237164 5.113413
            CHANNELS 3 Zrotation Yrotation Xrotation
            JOINT LeftArm
            {
              OFFSET 14.919846 2e-06 -5.502326
              CHANNELS 3 Zrotation Yrotation Xrotation
              JOINT LeftForeArm
              {
                OFFSET 28.739307 0.0 -0.002588
                CHANNELS 3 Zrotation Yrotation Xrotation
                JOINT LeftHand
                {
                  OFFSET 27.093981 -1e-06 0.002609
                  CHANNELS 3 Zrotation Yrotation Xrotation
                  JOINT LeftHandThumb1
                  {
                    OFFSET 2.276482 -1.392045 3.191413
                    CHANNELS 3 Zrotation Yrotation Xrotation
                    JOINT LeftHandThumb2
                    {
                      OFFSET 4.012836 -1.828127 1.641654
                      CHANNELS 3 Zrotation Yrotation Xrotation
                      JOINT LeftHandThumb3
                      {
                        OFFSET 2.798515 0.0 -3e-06
                        CHANNELS 3 Zrotation Yrotation Xrotation
                        JOINT LeftHandThumbEnd
                        {
                          OFFSET 3.180793 -4e-06 4e-06
                          CHANNELS 3 Zrotation Yrotation Xrotation
                        }
                      }
                    }
                  }
                  JOINT LeftHandIndex1
                  {
                    OFFSET 3.247555 -0.531998 2.296169
                    CHANNELS 3 Zrotation Yrotation Xrotation
                    JOINT LeftHandIndex2
                    {
                      OFFSET 6.364578 0.01206 0.1786
                      CHANNELS 3 Zrotation Yrotation Xrotation
                      JOINT LeftHandIndex3
                      {
                        OFFSET 3.662364 0.0 0.0
                        CHANNELS 3 Zrotation Yrotation Xrotation
                        JOINT LeftHandIndex4
                        {
                          OFFSET 2.329242 4e-06 4e-06
                          CHANNELS 3 Zrotation Yrotation Xrotation
                          JOINT LeftHandIndexEnd
                          {
                            OFFSET 2.759615 -0.180537 -0.113024
                            CHANNELS 3 Zrotation Yrotation Xrotation
                          }
                        }
                      }
                    }
                  }
                  JOINT LeftHandMiddle1
                  {
                    OFFSET 3.163495 0.240981 1.000332
                    CHANNELS 3 Zrotation Yrotation Xrotation
                    JOINT LeftHandMiddle2
                    {
                      OFFSET 6.19078 -0.259278 -1.002548
                      CHANNELS 3 Zrotation Yrotation Xrotation
                      JOINT LeftHandMiddle3
                      {
                        OFFSET 4.35652 -4e-06 -1e-06
                        CHANNELS 3 Zrotation Yrotation Xrotation
                        JOINT LeftHandMiddle4
                        {
                          OFFSET 2.996877 -8e-06 0.0
                          CHANNELS 3 Zrotation Yrotation Xrotation
                          JOINT LeftHandMiddleEnd
                          {
                            OFFSET 2.304287 -0.294569 -0.031741
                            CHANNELS 3 Zrotation Yrotation Xrotation
                          }
                        }
                      }
                    }
                  }
                  JOINT LeftHandRing1
                  {
                    OFFSET 2.882643 -0.053652 -0.322543
                    CHANNELS 3 Zrotation Yrotation Xrotation
                    JOINT LeftHandRing2
                    {
                      OFFSET 5.854541 -0.486202 -1.373841
                      CHANNELS 3 Zrotation Yrotation Xrotation
                      JOINT LeftHandRing3
                      {
                        OFFSET 4.350578 0.0 3e-06
                        CHANNELS 3 Zrotation Yrotation Xrotation
                        JOINT LeftHandRing4
                        {
                          OFFSET 2.651321 7e-06 2e-06
                          CHANNELS 3 Zrotation Yrotation Xrotation
                          JOINT LeftHandRingEnd
                          {
                            OFFSET 1.936105 0.077687 -7.1e-05
                            CHANNELS 3 Zrotation Yrotation Xrotation
                          }
                        }
                      }
                    }
                  }
                  JOINT LeftHandPinky1
                  {
                    OFFSET 2.8655 -0.310005 -1.600378
                    CHANNELS 3 Zrotation Yrotation Xrotation
                    JOINT LeftHandPinky2
                    {
                      OFFSET 5.087849 -1.331141 -1.77123
                      CHANNELS 3 Zrotation Yrotation Xrotation
                      JOINT LeftHandPinky3
                      {
                        OFFSET 3.070974 4e-06 0.0
                        CHANNELS 3 Zrotation Yrotation Xrotation
                        JOINT LeftHandPinky4
                        {
                          OFFSET 1.549672 0.0 1e-06
                          CHANNELS 3 Zrotation Yrotation Xrotation
                          JOINT LeftHandPinkyEnd
                          {
                            OFFSET 1.944893 -0.157802 0.057219
                            CHANNELS 3 Zrotation Yrotation Xrotation
                          }
                        }
                      }
                    }
                  }
                }
              }
            }
          }
          JOINT RightShoulder
          {
            OFFSET -1.380118 23.180309 5.214158
            CHANNELS 3 Zrotation Yrotation Xrotation
            JOINT RightArm
            {
              OFFSET -15.037196 1.2e-05 -5.545604
              CHANNELS 3 Zrotation Yrotation Xrotation
              JOINT RightForeArm
              {
                OFFSET -28.736639 2e-06 -0.002597
                CHANNELS 3 Zrotation Yrotation Xrotation
                JOINT RightHand
                {
                  OFFSET -27.133619 -0.0 0.002613
                  CHANNELS 3 Zrotation Yrotation Xrotation
                  JOINT RightHandThumb1
                  {
                    OFFSET -2.274032 -1.383988 3.163127
                    CHANNELS 3 Zrotation Yrotation Xrotation
                    JOINT RightHandThumb2
                    {
                      OFFSET -4.011429 -1.827466 1.640914
                      CHANNELS 3 Zrotation Yrotation Xrotation
                      JOINT RightHandThumb3
                      {
                        OFFSET -2.794935 -4e-06 -3e-06
                        CHANNELS 3 Zrotation Yrotation Xrotation
                        JOINT RightHandThumbEnd
                        {
                          OFFSET -3.183852 4e-06 1e-06
                          CHANNELS 3 Zrotation Yrotation Xrotation
                        }
                      }
                    }
                  }
                  JOINT RightHandIndex1
                  {
                    OFFSET -3.253266 -0.520057 2.282866
                    CHANNELS 3 Zrotation Yrotation Xrotation
                    JOINT RightHandIndex2
                    {
                      OFFSET -6.341917 0.012471 0.178266
                      CHANNELS 3 Zrotation Yrotation Xrotation
                      JOINT RightHandIndex3
                      {
                        OFFSET -3.654871 -8e-06 -0.0
                        CHANNELS 3 Zrotation Yrotation Xrotation
                        JOINT RightHandIndex4
                        {
                          OFFSET -2.327586 0.0 1e-06
                          CHANNELS 3 Zrotation Yrotation Xrotation
                          JOINT RightHandIndexEnd
                          {
                            OFFSET -2.76179 -0.180656 -0.113078
                            CHANNELS 3 Zrotation Yrotation Xrotation
                          }
                        }
                      }
                    }
                  }
                  JOINT RightHandMiddle1
                  {
                    OFFSET -3.168106 0.246593 1.00103
                    CHANNELS 3 Zrotation Yrotation Xrotation
                    JOINT RightHandMiddle2
                    {
                      OFFSET -6.180828 -0.258836 -1.000895
                      CHANNELS 3 Zrotation Yrotation Xrotation
                      JOINT RightHandMiddle3
                      {
                        OFFSET -4.348901 0.0 -0.0
                        CHANNELS 3 Zrotation Yrotation Xrotation
                        JOINT RightHandMiddle4
                        {
                          OFFSET -3.00024 -4e-06 -2e-06
                          CHANNELS 3 Zrotation Yrotation Xrotation
                          JOINT RightHandMiddleEnd
                          {
                            OFFSET -2.30252 -0.29437 -0.031706
                            CHANNELS 3 Zrotation Yrotation Xrotation
                          }
                        }
                      }
                    }
                  }
                  JOINT RightHandRing1
                  {
                    OFFSET -2.88569 -0.067952 -0.308858
                    CHANNELS 3 Zrotation Yrotation Xrotation
                    JOINT RightHandRing2
                    {
                      OFFSET -5.854198 -0.48613 -1.373731
                      CHANNELS 3 Zrotation Yrotation Xrotation
                      JOINT RightHandRing3
                      {
                        OFFSET -4.33881 -4e-06 -0.0
                        CHANNELS 3 Zrotation Yrotation Xrotation
                        JOINT RightHandRing4
                        {
                          OFFSET -2.654903 -4e-06 4e-06
                          CHANNELS 3 Zrotation Yrotation Xrotation
                          JOINT RightHandRingEnd
                          {
                            OFFSET -1.933568 0.077527 -5.2e-05
                            CHANNELS 3 Zrotation Yrotation Xrotation
                          }
                        }
                      }
                    }
                  }
                  JOINT RightHandPinky1
                  {
                    OFFSET -2.866425 -0.342796 -1.584145
                    CHANNELS 3 Zrotation Yrotation Xrotation
                    JOINT RightHandPinky2
                    {
                      OFFSET -5.091371 -1.332055 -1.772385
                      CHANNELS 3 Zrotation Yrotation Xrotation
                      JOINT RightHandPinky3
                      {
                        OFFSET -3.062664 -4e-06 1e-06
                        CHANNELS 3 Zrotation Yrotation Xrotation
                        JOINT RightHandPinky4
                        {
                          OFFSET -1.546529 4e-06 -2e-06
                          CHANNELS 3 Zrotation Yrotation Xrotation
                          JOINT RightHandPinkyEnd
                          {
                            OFFSET -1.945119 -0.157718 0.057211
                            CHANNELS 3 Zrotation Yrotation Xrotation
                          }
                        }
                      }
                    }
                  }
                }
              }
            }
          }
        }
      }
    }
    JOINT LeftLeg
    {
      OFFSET 10.043214 -8.434526 2.595655
      CHANNELS 3 Zrotation Yrotation Xrotation
      JOINT LeftShin
      {
        OFFSET -1e-06 -43.221752 -0.802913
        CHANNELS 3 Zrotation Yrotation Xrotation
        JOINT LeftFoot
        {
          OFFSET 1e-06 -42.155094 -3.481523
          CHANNELS 3 Zrotation Yrotation Xrotation
          JOINT LeftToeBase
          {
            OFFSET 0.0 -5.059472 13.231529
            CHANNELS 3 Zrotation Yrotation Xrotation
            JOINT LeftToeEnd
            {
              OFFSET -0.009607 -1.647619 6.513017
              CHANNELS 3 Zrotation Yrotation Xrotation
            }
          }
        }
      }
    }
    JOINT RightLeg
    {
      OFFSET -10.047278 -8.29526 2.620317
      CHANNELS 3 Zrotation Yrotation Xrotation
      JOINT RightShin
      {
        OFFSET 1e-06 -43.362206 -0.805556
        CHANNELS 3 Zrotation Yrotation Xrotation
        JOINT RightFoot
        {
          OFFSET 2e-06 -42.117393 -3.478398
          CHANNELS 3 Zrotation Yrotation Xrotation
          JOINT RightToeBase
          {
            OFFSET -0.0 -5.079609 13.284196
            CHANNELS 3 Zrotation Yrotation Xrotation
            JOINT RightToeEnd
            {
              OFFSET 0.009532 -1.634378 6.460591
              CHANNELS 3 Zrotation Yrotation Xrotation
            }
          }
        }
      }
    }
  }
}
MOTION
Frames: 4
Frame Time: 0.03333333333333333
0.0 0.0 0.0 0.0 -0.0 0.0 0.063621 31.465277 11.085018 -3.702199 -6.348258 -3.971976 -1.144049 -2.864751 17.16785 -1.463852 -1.77566 6.010909 -2.866884 -6.383071 24.756832 -5.935807 5.230901 -8.555285 4.407374 16.541285 -2.637127 -6.958945 21.03467 -23.755402 7.7e-05 -2.4e-05 6e-06 0.019013 -0.127919 0.001154 0.664023 -3.852952 -10.852311 -0.637108 3.618548 -10.812236 2.112206 -18.726227 6.522999 -55.178822 -54.25695 36.095169 -1.387389 -62.249149 2.114905 2.175681 11.429038 10.809903 -5.882108 9.861284 0.702591 -10.936872 -0.360575 7.156209 1e-06 8.774824 2e-06 -16.398174 17.274635 6.564868 -1.844032 2.498504 -2.507279 -10.1636 4.678946 4.621111 -20.976027 -2e-06 2e-06 -21.226288 2.451695 -3.593999 -2e-06 -7e-06 -0.0 -1.362682 2.240798 -0.746322 -21.334915 0.584912 3.008324 -13.821217 -2e-06 3e-06 -23.887173 -0.249079 -0.839484 -61.153614 3.08643 -0.798641 -0.294025 1.679688 0.833256 -14.218212 0.093216 1.300581 -34.212051 -0.287564 0.967168 -20.033215 0.964538 1.212844 -1e-06 -1e-06 1e-06 -3.440389 0.788233 0.501655 -15.928189 -3.167308 2.999708 -6.338829 -1e-06 2e-06 -18.123453 3.648183 -4.905669 -4e-06 1e-06 -2e-06 14.920436 11.625656 11.103467 71.436172 7.744226 -6.874876 -37.110317 83.864639 -36.223526 -23.65023 3.404624 24.766356 2.243543 -5.255038 -3.180159 14.282896 -0.826596 6.952504 -3e-06 -12.690607 1e-06 15.810401 -18.100069 2.971296 1.665666 -1.955921 -2.8783 4.727801 -4.170588 4.993925 11.020529 3e-06 -2e-06 12.109056 -3.735717 -2.866786 0.0 0.0 -1e-06 1.291984 -1.92855 -1.49809 14.800134 0.56747 3.865607 14.242577 -1.341735 -6.660661 19.631973 0.143926 -0.648246 50.196278 -0.679089 -6.940685 0.353029 -1.511151 -0.031941 20.222799 3.684311 2.316631 18.787281 6e-06 -1e-06 10.751633 -0.479867 1.397907 -0.0 0.0 0.0 3.273809 0.305947 -0.580112 21.48682 11.830377 2.266134 8.16293 3e-06 -2e-06 18.399088 -3.798982 -4.940577 3e-06 1e-06 -1e-06 11.957896 35.717587 -116.349266 0.445888 -0.158209 140.732956 -5.228684 -0.605756 -14.564466 1.496489 -1.743523 2.187393 0.0 0.0 2e-06 -67.255409 -37.366592 -50.105991 1.66601 1.181201 129.984055 22.35306 56.873997 -21.831383 -1.548458 0.198772 1.708187 0.0 1e-06 -1e-06 
0.0 0.0 0.0 0.0 -0.0 0.0 0.081543 31.442282 11.086226 -3.677678 -6.314077 -3.954567 -1.13661 -2.861282 17.16124 -1.473195 -1.781968 6.0175 -2.877688 -6.391464 24.776203 -6.022913 5.254446 -8.604849 4.386809 16.529127 -2.63445 -6.985377 21.011913 -23.720533 7.7e-05 -2.3e-05 6e-06 0.019004 -0.125501 -0.000774 0.663834 -3.850389 -10.857481 -0.636935 3.621033 -10.816355 2.088728 -18.723145 6.524427 -55.092216 -54.29575 36.165543 -1.294837 -62.254532 2.027501 2.189846 11.437165 10.867083 -5.882108 9.861286 0.702592 -10.936873 -0.360575 7.156207 -0.0 8.774824 -1e-06 -16.392439 17.286602 6.572962 -1.844033 2.498504 -2.507277 -10.163602 4.678946 4.62111 -20.976028 0.0 5e-06 -21.226292 2.451699 -3.593998 -2e-06 -7e-06 1e-06 -1.362682 2.240798 -0.746323 -21.334917 0.584912 3.008324 -13.821218 -0.0 4e-06 -23.887177 -0.249074 -0.839484 -61.153828 3.075676 -0.786398 -0.294025 1.679689 0.833257 -14.218211 0.093215 1.300581 -34.212055 -0.28756 0.967172 -20.033216 0.964539 1.212843 -1e-06 -1e-06 1e-06 -3.44039 0.788235 0.501656 -15.928189 -3.167308 2.999708 -6.338828 -2e-06 3e-06 -18.123449 3.648183 -4.905667 -4e-06 0.0 -3e-06 14.956106 11.643818 11.09906 71.432869 7.748048 -6.978467 -36.798737 83.880127 -35.902512 -23.703876 3.480051 24.686659 2.243541 -5.255036 -3.180157 14.282894 -0.826594 6.952505 -3e-06 -12.690603 1e-06 15.817214 -18.110744 2.959478 1.665665 -1.955921 -2.878298 4.7278 -4.170587 4.993924 11.020526 3e-06 -0.0 12.109052 -3.735716 -2.866783 0.0 -0.0 -0.0 1.291986 -1.928548 -1.49809 14.800129 0.567469 3.865609 14.242574 -1.341737 -6.660656 19.631969 0.143924 -0.648243 50.203728 -0.678025 -6.958179 0.353027 -1.51115 -0.031939 20.222794 3.684309 2.316632 18.787273 5e-06 1e-06 10.751629 -0.47987 1.397907 0.0 -1e-06 0.0 3.273806 0.305947 -0.58011 21.486818 11.830377 2.266137 8.162928 1e-06 0.0 18.39908 -3.798985 -4.940572 3e-06 1e-06 -1e-06 11.899867 35.622906 -116.430916 0.445171 -0.161779 140.758148 -5.27654 -0.573696 -14.609237 1.495851 -1.745697 2.229646 0.0 0.0 2e-06 -67.361053 -37.367172 -50.074795 1.660835 1.176765 129.973053 22.599674 56.913719 -21.679182 -1.545066 0.186181 1.770488 -0.0 -0.0 -1e-06 
0.0 0.0 0.0 0.0 -0.0 0.0 0.096306 31.422535 11.095245 -3.653192 -6.287002 -3.942307 -1.135738 -2.862335 17.157831 -1.478592 -1.788972 6.027765 -2.888996 -6.395982 24.791265 -6.098313 5.276299 -8.659609 4.377832 16.497034 -2.639124 -6.992662 21.011101 -23.653875 7.7e-05 -2.4e-05 6e-06 0.01865 -0.122611 0.00046 0.662959 -3.846668 -10.857493 -0.636723 3.62308 -10.814708 2.069319 -18.727903 6.559075 -54.959198 -54.336319 36.180637 -1.181952 -62.27317 1.9369 2.18854 11.463212 10.915568 -5.882112 9.861292 0.702591 -10.93688 -0.360573 7.156208 1e-06 8.774831 0.0 -16.37458 17.309248 6.585364 -1.844034 2.498506 -2.507279 -10.16361 4.678948 4.621112 -20.976044 -4e-06 1e-06 -21.226307 2.451699 -3.594004 -1e-06 -6e-06 1e-06 -1.362683 2.240799 -0.746322 -21.33493 0.584911 3.008321 -13.821227 -1e-06 0.0 -23.887192 -0.249082 -0.839488 -61.124512 3.067003 -0.784358 -0.294025 1.679689 0.833256 -14.218219 0.093216 1.30058 -34.212074 -0.287566 0.967166 -20.03323 0.964536 1.212842 -0.0 -1e-06 1e-06 -3.44039 0.788233 0.501656 -15.9282 -3.16731 2.999707 -6.338832 -1e-06 1e-06 -18.123463 3.648185 -4.905676 -4e-06 1e-06 -2e-06 14.993258 11.662391 11.092261 71.422974 7.745749 -7.096552 -36.410385 83.913048 -35.492764 -23.707552 3.54699 24.636663 2.243543 -5.255039 -3.180161 14.282898 -0.826596 6.952506 -2e-06 -12.690612 2e-06 15.826284 -18.126015 2.95705 1.665668 -1.955924 -2.878302 4.727802 -4.170588 4.993927 11.020535 2e-06 -2e-06 12.10906 -3.735717 -2.866788 0.0 -0.0 1e-06 1.291987 -1.928551 -1.498091 14.800136 0.567467 3.865608 14.24258 -1.341736 -6.660664 19.631975 0.143929 -0.648248 50.221672 -0.693577 -6.973299 0.353029 -1.511152 -0.031941 20.222803 3.684309 2.316628 18.787287 6e-06 -4e-06 10.751635 -0.479868 1.397907 -0.0 0.0 0.0 3.273809 0.305947 -0.580112 21.486826 11.830383 2.266133 8.162931 1e-06 -2e-06 18.399092 -3.798986 -4.940581 3e-06 1e-06 -1e-06 11.850736 35.557667 -116.488373 0.44756 -0.168199 140.787338 -5.328284 -0.568866 -14.663581 1.495616 -1.747174 2.246573 0.0 0.0 2e-06 -67.457695 -37.380554 -50.037678 1.659271 1.182786 129.961151 22.784832 56.935478 -21.594473 -1.541212 0.16971 1.828449 0.0 1e-06 -1e-06 
0.0 0.0 0.0 0.0 -0.0 0.0 0.10956 31.40283 11.111843 -3.63323 -6.269555 -3.932953 -1.139784 -2.859304 17.159277 -1.481412 -1.793913 6.040168 -2.89054 -6.399706 24.806572 -6.164202 5.295021 -8.70909 4.378932 16.477163 -2.644356 -7.017498 21.018585 -23.610079 7.7e-05 -2.3e-05 6e-06 0.018752 -0.11907 0.005368 0.662521 -3.84162 -10.851399 -0.63605 3.624814 -10.807058 2.058862 -18.74748 6.607198 -54.794186 -54.365887 36.154812 -1.051899 -62.314274 1.851372 2.197084 11.486397 10.907888 -5.882108 9.86129 0.702591 -10.936873 -0.360575 7.156207 -1e-06 8.774828 0.0 -16.348093 17.334528 6.595635 -1.844033 2.498505 -2.507279 -10.1636 4.678946 4.621111 -20.976027 -3e-06 1e-06 -21.226288 2.451698 -3.594001 -2e-06 -7e-06 1e-06 -1.362682 2.240798 -0.746323 -21.334917 0.584909 3.008324 -13.821218 -2e-06 2e-06 -23.887177 -0.249078 -0.839485 -61.058506 3.067327 -0.800864 -0.294025 1.679688 0.833257 -14.21821 0.093214 1.30058 -34.212063 -0.287563 0.96717 -20.033218 0.964535 1.212843 -1e-06 -1e-06 1e-06 -3.440389 0.788234 0.501656 -15.928189 -3.167309 2.999707 -6.338828 -1e-06 1e-06 -18.123451 3.648184 -4.905673 -4e-06 1e-06 -3e-06 15.032379 11.669521 11.083429 71.397049 7.734789 -7.177981 -36.254051 83.946663 -35.296997 -23.689474 3.569196 24.56723 2.243544 -5.255038 -3.180158 14.282895 -0.826596 6.952503 -2e-06 -12.690607 2e-06 15.836028 -18.146786 2.964845 1.665667 -1.955921 -2.8783 4.7278 -4.170589 4.993925 11.020531 3e-06 -2e-06 12.109055 -3.735716 -2.866785 0.0 0.0 1e-06 1.291985 -1.928548 -1.49809 14.800129 0.567468 3.865608 14.242574 -1.341737 -6.660659 19.631969 0.143927 -0.648245 50.241127 -0.71767 -6.977846 0.353029 -1.511151 -0.03194 20.222797 3.684309 2.316628 18.787281 4e-06 -3e-06 10.751633 -0.479871 1.397905 0.0 0.0 1e-06 3.273807 0.305944 -0.580111 21.486818 11.830374 2.266129 8.16293 2e-06 -2e-06 18.399088 -3.798983 -4.940578 3e-06 1e-06 -1e-06 11.815898 35.52758 -116.530388 0.450245 -0.168761 140.824265 -5.364418 -0.592622 -14.718954 1.494289 -1.745501 2.23858 0.0 0.0 2e-06 -67.554306 -37.39603 -49.993126 1.657903 1.188073 129.948776 22.966446 56.939327 -21.51849 -1.537209 0.157698 1.849416 0.0 -0.0 -1e-06 
